<?xml version="1.0" encoding="utf-8"?>
<!-- Generator: Adobe Illustrator 23.0.3, SVG Export Plug-In . SVG Version: 6.00 Build 0)  -->
<svg version="1.1" id="Vrstva_1" xmlns="http://www.w3.org/2000/svg" xmlns:xlink="http://www.w3.org/1999/xlink" x="0px" y="0px"
	 viewBox="0 0 100 100" style="enable-background:new 0 0 100 100;" xml:space="preserve">
<style type="text/css">
	.st0{fill:#FFFFFF;}
	.st1{fill:#1F81C1;}
</style>
<polygon class="st0" points="79.3,90.4 83.5,86.9 91.6,40.4 74.1,12.3 35.9,6.5 11.3,23.7 6.4,60.7 15.7,88.8 58.1,95.2 "/>
<g>
	<path class="st1" d="M80.6,89.4c-1.7,1.6-3.5,2.7-5.3,3.7c-7.7,4.5-16,6.8-24.9,6.8c-14,0.1-28,0-42,0c-4.6,0-7.9-3.1-8.3-7.6
		C0,91.8,0,91.2,0,90.7C0,63.6,0,36.5,0,9.4C0,6.6,0.4,4,2.7,2c1.5-1.2,3.2-2,5.2-2c14.6,0,29.2-0.1,43.8,0
		c8.1,0.1,15.8,2.3,22.9,6.4c12.5,7.2,20.6,17.8,23.9,31.8c3.6,15.2,0.6,29.3-8.7,41.9c-1.8,2.4-3.9,4.6-6.1,6.7
		c-0.3,0.3-0.6,0.6-1.2,0.8c-0.3-3.9-0.6-7.7-0.8-11.5c-0.2-3.2-0.4-6.4-0.6-9.6c-0.1-0.8,0-1.5,0.3-2.2c4.4-9.9,4.4-19.9-0.4-29.6
		c-5.3-10.6-14-16.8-25.7-19c-3.4-0.6-6.9-0.7-10.2-0.2c-5.3,0.9-10.5,2.8-15,6.1C22.6,27.1,17.7,34.2,16,43.4
		c-2.3,13.1,1.6,24.2,11.6,32.8c9,7.8,19.6,9.8,31.1,7.1c0.5-0.1,1-0.3,1.6-0.1c6.4,1.9,12.8,3.8,19.2,5.6
		C80,89.1,80.2,89.2,80.6,89.4z"/>
	<path class="st1" d="M50,55.6c-3.1,0-5.7-2.5-5.6-5.6c0-3.2,2.7-5.7,5.8-5.7c3.1,0.1,5.5,2.6,5.5,5.7C55.6,53.2,53.1,55.6,50,55.6z
		"/>
	<path class="st1" d="M65.8,55.6c-3.1,0-5.6-2.6-5.5-5.7c0-3.1,2.6-5.6,5.7-5.6s5.6,2.6,5.6,5.7C71.6,53.2,69.1,55.6,65.8,55.6z"/>
	<path class="st1" d="M34,55.6c-3.1,0-5.6-2.6-5.6-5.7c0-3.1,2.7-5.6,5.7-5.6c3.1,0,5.7,2.6,5.6,5.7C39.7,53.2,37.2,55.6,34,55.6z"
		/>
</g>
</svg>
